<svg width="192" height="192" viewBox="0 0 192 192" fill="none" xmlns="http://www.w3.org/2000/svg">
<circle cx="96" cy="96" r="96" fill="#F300EA" fill-opacity="0.29"/>
<path d="M74.2937 172.899C74.0682 174.015 73.5934 174.909 72.8695 175.578C72.1492 176.244 71.298 176.577 70.3158 176.577C69.4208 176.577 68.7497 176.327 68.3022 175.829C67.8548 175.327 67.631 174.576 67.631 173.575C67.631 172.633 67.8529 171.664 68.2968 170.667C68.7442 169.666 69.3172 168.859 70.0156 168.244C70.4813 167.833 70.9742 167.627 71.4944 167.627C71.8255 167.627 72.262 167.737 72.804 167.955C73.4661 168.217 73.7972 168.506 73.7972 168.822C73.7972 168.972 73.7426 169.104 73.6335 169.221C73.5243 169.337 73.3934 169.395 73.2406 169.395C73.1605 169.395 73.0478 169.35 72.9023 169.259C72.3457 168.921 71.8764 168.752 71.4944 168.752C71.2216 168.752 70.936 168.893 70.6377 169.177C70.4886 169.319 70.2739 169.577 69.9938 169.952C69.1535 171.065 68.7333 172.273 68.7333 173.575C68.7333 174.259 68.8388 174.738 69.0498 175.01C69.279 175.309 69.701 175.458 70.3158 175.458C70.9669 175.458 71.5326 175.252 72.0128 174.841C72.5185 174.405 72.8713 173.781 73.0714 172.97C72.0637 173.021 71.1997 173.215 70.4795 173.553C70.3958 173.594 70.3139 173.614 70.2339 173.614C70.0738 173.614 69.9411 173.552 69.8356 173.428C69.7373 173.315 69.6882 173.184 69.6882 173.035C69.6882 172.835 69.7846 172.675 69.9774 172.555C70.7632 172.075 72.1183 171.835 74.0427 171.835C74.1991 171.835 74.3301 171.887 74.4356 171.993C74.5411 172.098 74.5938 172.231 74.5938 172.391C74.5938 172.628 74.4938 172.797 74.2937 172.899ZM80.3889 175.976C79.9778 176.169 79.3321 176.342 78.4518 176.495C77.6405 176.637 76.9784 176.707 76.4655 176.707C76.0981 176.707 75.8343 176.651 75.6743 176.538C75.456 176.386 75.3469 176.105 75.3469 175.698L75.456 173.892C75.5506 172.226 75.5979 170.378 75.5979 168.348C75.5979 168.191 75.6488 168.059 75.7507 167.949C75.8562 167.84 75.9853 167.786 76.1381 167.786C76.2945 167.786 76.4237 167.84 76.5255 167.949C76.631 168.059 76.6838 168.191 76.6838 168.348C76.6838 170.403 76.6347 172.273 76.5365 173.957L76.4655 174.787C76.4364 175.089 76.4255 175.356 76.4328 175.589C77.3822 175.6 78.5827 175.376 80.0342 174.918C80.0961 174.899 80.1543 174.89 80.2088 174.89C80.3653 174.89 80.4962 174.952 80.6017 175.076C80.6927 175.189 80.7381 175.318 80.7381 175.463C80.7381 175.696 80.6217 175.867 80.3889 175.976ZM81.6822 174.841C81.6785 174.688 81.7295 174.565 81.835 174.47C81.9441 174.372 82.0769 174.323 82.2333 174.323C82.4116 174.323 82.568 174.425 82.7026 174.628C82.8881 174.905 83.0536 175.092 83.1991 175.191C83.5084 175.394 83.9576 175.496 84.547 175.496C85.1108 175.496 85.6347 175.374 86.1185 175.13C86.7369 174.818 87.0462 174.383 87.0462 173.826C87.0462 173.368 86.786 173.006 86.2658 172.74C85.8257 172.511 85.2818 172.388 84.6343 172.369C84.0595 172.348 83.5702 172.222 83.1664 171.993C82.6498 171.698 82.3915 171.276 82.3915 170.727C82.3915 170.079 82.759 169.488 83.4938 168.953C84.1959 168.448 84.9217 168.195 85.6711 168.195C86.0239 168.195 86.4223 168.255 86.8661 168.375C87.4554 168.531 87.7501 168.732 87.7501 168.975C87.7501 169.295 87.5864 169.455 87.259 169.455C87.1135 169.455 86.8588 169.417 86.495 169.341C86.1312 169.261 85.8493 169.223 85.6492 169.226C85.0817 169.234 84.5997 169.374 84.2032 169.646C83.7957 169.927 83.592 170.267 83.592 170.667C83.592 170.969 83.8612 171.182 84.3996 171.305C84.5997 171.353 84.9871 171.396 85.5619 171.436C86.395 171.498 87.0462 171.76 87.5154 172.222C87.9447 172.644 88.1593 173.159 88.1593 173.766C88.1593 174.632 87.7592 175.323 86.9588 175.84C86.264 176.287 85.4582 176.511 84.5415 176.511C83.8758 176.511 83.2664 176.384 82.7135 176.129C82.0369 175.816 81.6931 175.387 81.6822 174.841ZM100.906 176.653C100.71 176.653 100.548 176.551 100.421 176.347C100.312 176.173 100.213 175.882 100.126 175.474L99.9295 174.536C99.7804 173.954 99.5439 172.669 99.2202 170.683L98.1288 173.974L97.8069 175.01C97.6759 175.422 97.5395 175.758 97.3976 176.02C97.2448 176.296 97.0393 176.435 96.781 176.435C96.5664 176.435 96.3972 176.318 96.2735 176.085C96.1935 175.933 96.1207 175.738 96.0552 175.502L95.897 174.896C95.5296 173.612 95.2058 172.237 94.9257 170.771L94.7293 171.747L94.0253 174.628C93.9962 174.967 93.9053 175.467 93.7525 176.129C93.6434 176.413 93.4633 176.555 93.2123 176.555C93.034 176.555 92.8921 176.491 92.7867 176.364C92.6957 176.255 92.6502 176.12 92.6502 175.96C92.6502 175.352 92.7757 174.607 93.0267 173.723L93.627 171.524L93.9435 169.805C94.1035 169.001 94.2727 168.475 94.451 168.228C94.5965 168.017 94.7765 167.911 94.9912 167.911C95.2276 167.911 95.4041 168.046 95.5205 168.315C95.6624 168.639 95.8151 169.299 95.9789 170.296C96.1717 171.493 96.4718 172.788 96.8792 174.181C97.4176 172.78 97.8833 171.322 98.2761 169.805L98.4398 169.008C98.5053 168.688 98.5908 168.43 98.6963 168.233C98.8382 167.964 99.0328 167.829 99.2802 167.829C99.593 167.829 99.8313 168.131 99.995 168.735C100.053 168.943 100.124 169.372 100.208 170.023C100.422 171.667 100.69 173.071 101.01 174.236L101.277 175.174C101.416 175.676 101.485 175.985 101.485 176.102C101.485 176.258 101.425 176.389 101.305 176.495C101.188 176.6 101.055 176.653 100.906 176.653ZM105.212 176.451C104.39 176.451 103.724 176.245 103.215 175.834C102.658 175.38 102.38 174.743 102.38 173.925C102.38 172.979 102.609 172.186 103.067 171.545C103.566 170.847 104.231 170.498 105.064 170.498C105.668 170.498 106.161 170.6 106.543 170.803C107.012 171.054 107.247 171.44 107.247 171.96C107.247 172.324 107.042 172.655 106.63 172.953C106.449 173.084 106.063 173.288 105.474 173.564L103.389 174.552C103.593 174.854 103.846 175.081 104.148 175.234C104.453 175.387 104.808 175.463 105.212 175.463C105.463 175.463 105.757 175.416 106.096 175.321C106.525 175.201 106.801 175.045 106.925 174.852C107.049 174.656 107.182 174.558 107.323 174.558C107.451 174.558 107.564 174.607 107.662 174.705C107.764 174.799 107.815 174.91 107.815 175.038C107.815 175.442 107.489 175.789 106.838 176.08C106.281 176.327 105.739 176.451 105.212 176.451ZM105.064 171.48C104.621 171.48 104.251 171.653 103.957 171.998C103.662 172.34 103.442 172.857 103.296 173.548L104.972 172.751C105.63 172.431 106.099 172.153 106.379 171.916C106.067 171.625 105.628 171.48 105.064 171.48ZM113.812 171.382C113.768 171.916 113.746 172.451 113.746 172.986C113.746 174.197 113.802 175.112 113.915 175.731C113.922 175.782 113.926 175.823 113.926 175.856C113.926 176.002 113.875 176.122 113.773 176.216C113.671 176.311 113.553 176.358 113.419 176.358C113.193 176.358 113.028 176.195 112.922 175.867C112.66 176.06 112.387 176.205 112.104 176.304C111.823 176.402 111.531 176.451 111.225 176.451C110.472 176.451 109.848 176.2 109.353 175.698C108.844 175.185 108.589 174.527 108.589 173.723C108.589 172.751 108.846 171.973 109.359 171.387C109.875 170.801 110.545 170.509 111.367 170.509C111.789 170.509 112.114 170.574 112.344 170.705L112.857 171.082C112.908 169.55 112.968 168.519 113.037 167.988C113.084 167.664 113.249 167.502 113.533 167.502C113.864 167.502 114.03 167.678 114.03 168.031C114.03 168.537 113.957 169.654 113.812 171.382ZM111.389 171.524C110.778 171.524 110.319 171.705 110.014 172.069C109.708 172.429 109.555 172.973 109.555 173.701C109.555 174.17 109.721 174.574 110.052 174.912C110.386 175.251 110.778 175.42 111.225 175.42C111.531 175.42 111.789 175.363 112 175.251C112.124 175.185 112.325 175.034 112.606 174.798C112.66 174.75 112.713 174.694 112.764 174.628L112.747 173.684L112.753 173.051L112.764 172.408C112.626 172.113 112.442 171.893 112.213 171.747C111.983 171.598 111.709 171.524 111.389 171.524ZM116.398 169.292C116.223 169.292 116.072 169.23 115.945 169.106C115.818 168.983 115.754 168.833 115.754 168.659C115.754 168.484 115.818 168.335 115.945 168.211C116.072 168.088 116.223 168.026 116.398 168.026C116.573 168.026 116.722 168.088 116.845 168.211C116.973 168.335 117.036 168.484 117.036 168.659C117.036 168.833 116.973 168.983 116.845 169.106C116.722 169.23 116.573 169.292 116.398 169.292ZM116.644 173.723C116.644 173.941 116.649 174.268 116.66 174.705C116.674 175.138 116.682 175.463 116.682 175.682C116.682 175.842 116.633 175.973 116.534 176.075C116.436 176.176 116.307 176.227 116.147 176.227C115.991 176.227 115.861 176.176 115.76 176.075C115.661 175.973 115.612 175.842 115.612 175.682C115.612 175.463 115.605 175.138 115.59 174.705C115.579 174.268 115.574 173.941 115.574 173.723C115.574 173.381 115.592 172.955 115.629 172.446C115.665 171.933 115.683 171.505 115.683 171.163C115.683 171 115.732 170.867 115.831 170.765C115.932 170.663 116.062 170.612 116.218 170.612C116.374 170.612 116.502 170.663 116.6 170.765C116.702 170.867 116.753 171 116.753 171.163C116.753 171.505 116.735 171.933 116.698 172.446C116.662 172.955 116.644 173.381 116.644 173.723ZM122.75 176.56C122.681 176.56 122.555 176.48 122.373 176.32C122.209 176.171 122.088 176.038 122.008 175.922C121.658 176.111 121.351 176.253 121.085 176.347C120.82 176.446 120.598 176.495 120.42 176.495C119.568 176.495 118.948 176.255 118.559 175.774C118.191 175.323 118.008 174.632 118.008 173.701C118.008 172.82 118.31 172.067 118.914 171.442C119.521 170.816 120.245 170.503 121.085 170.503C121.402 170.503 121.757 170.585 122.149 170.749C122.644 170.952 122.892 171.198 122.892 171.485C122.892 171.584 122.855 171.671 122.782 171.747C122.746 171.886 122.717 172.113 122.695 172.429C122.677 172.746 122.666 173.152 122.662 173.646C122.659 174.097 122.69 174.454 122.755 174.716C122.792 174.876 122.906 175.196 123.099 175.676C123.124 175.742 123.166 175.838 123.224 175.965L123.257 176.058C123.257 176.204 123.206 176.324 123.104 176.418C123.002 176.513 122.884 176.56 122.75 176.56ZM121.615 172.768C121.615 172.611 121.624 172.442 121.642 172.26C121.664 172.075 121.695 171.878 121.735 171.671C121.6 171.602 121.484 171.551 121.385 171.518C121.291 171.485 121.215 171.469 121.156 171.469C120.592 171.469 120.105 171.7 119.694 172.162C119.286 172.62 119.083 173.15 119.083 173.75C119.083 174.347 119.188 174.794 119.399 175.092C119.61 175.391 119.927 175.54 120.349 175.54C120.698 175.54 120.994 175.476 121.238 175.349C121.369 175.28 121.553 175.141 121.789 174.934C121.673 173.97 121.615 173.248 121.615 172.768Z" fill="black"/>
<path d="M66.1447 61.0037L112.497 104.906" stroke="#29DF5C" stroke-width="2.48343" stroke-linecap="round"/>
<path d="M112.779 105.442H172.133" stroke="#29DF5C" stroke-width="2.48343" stroke-linecap="round"/>
<path d="M82.8697 50.113C82.8697 50.113 65.1263 35.3818 48.697 43.4736C32.2677 51.5654 21.0959 73.5584 30.7344 82.4801C40.3728 91.4018 64.4691 117.752 82.8697 116.092C101.27 114.432 112.442 104.888 112.442 104.888" stroke="#29DF5C" stroke-width="2.48343"/>
<path d="M50.2109 68.5393V135.82" stroke="#293BDF" stroke-width="2.48343" stroke-linecap="round"/>
<path d="M51.6968 68.4336L86.7458 106.61" stroke="#293BDF" stroke-width="2.48343" stroke-linecap="round"/>
<path d="M86.7457 106.61L118.29 74.2432" stroke="#293BDF" stroke-width="2.48343" stroke-linecap="round"/>
<path d="M118.742 75.532V137.793" stroke="#293BDF" stroke-width="2.48343" stroke-linecap="round"/>
<path d="M162.414 60.7716C162.414 60.7716 150.804 58.6968 149.709 58.9042C148.614 59.1117 147.08 58.9042 144.232 60.7716C141.385 62.6389 139.413 66.1661 139.413 66.1661C139.413 66.1661 136.346 70.3157 135.908 73.013C135.47 75.7102 136.127 77.9925 139.413 79.8598C142.699 81.7272 142.699 81.7272 142.699 81.7272C142.699 81.7272 142.48 81.7272 147.08 83.5945C151.68 85.4618 152.338 86.7067 152.338 86.7067C152.338 86.7067 154.737 89.4645 155.842 91.4788C157.016 93.6163 157.157 93.7611 158.033 97.2883C158.909 100.815 159.128 102.06 158.909 103.928C158.69 105.795 158.033 108.7 158.033 108.7C156.664 111.293 159.566 112.019 154.528 115.339C149.49 118.659 149.709 118.036 149.709 118.036L144.232 119.904C142.699 120.251 141.396 120.525 138.318 121.149H133.718" stroke="#FE0514" stroke-width="1.86257"/>
</svg>
